<svg xmlns="http://www.w3.org/2000/svg" xmlns:xlink="http://www.w3.org/1999/xlink" x="0" y="0" version="1.1" viewBox="0 0 800 800" xml:space="preserve" style="enable-background:new 0 0 800 800"><g id="OBJECTS"><path style="fill:#6d6e70" d="M408.64,688.867c0,0,126.526-26.794,260.495,5.954C669.135,694.822,532.189,718.638,408.64,688.867z"/><path style="fill:#6d6e70" d="M137.726,678.448c0,0,104.113-26.794,214.35,5.954C352.076,684.402,239.389,708.219,137.726,678.448 z"/><g><path style="fill:#e5ae81" d="M548.811,414.556c0,0-11.413,2.481-11.909,7.939c0,5.458,9.924,20.344,16.375,23.322 c3.474,1.489,8.435-10.42,7.939-11.909c-0.496-1.489-5.458,3.473-5.458,3.473l0.496-6.947l-3.97,1.985 C552.284,432.42,555.262,418.03,548.811,414.556z"/><path style="fill:#e5ae81" d="M481.162,206.15c0,0,11.909,3.97,13.894-3.308c1.985-7.278,7.278-17.863,5.293-19.187 c-1.985-1.323-8.601,10.586-8.601,10.586l0.662-9.924c0,0,3.97-13.232,0-19.187c-3.97-5.954-2.646,9.262-5.293,15.217 c-2.647,5.954-7.278,14.555-9.924,16.54C474.546,198.873,481.162,206.15,481.162,206.15z"/><g><g><g><path style="fill:#7e474a" d="M505.811,180.108c0,0-13.351,7.127-13.923,16.638c-0.572,9.511,6.712,34.913,6.712,34.913 S520.126,193.598,505.811,180.108z"/><path style="fill:#e5ae81" d="M568.247,257.874c-15.873,27.094-45.273,30.026-58.564,23.94 c-13.291-6.085-25.361-25.167-19.275-38.459c6.086-13.291,6.874-23.964,7.801-41.824c0.927-17.86,18.197-26.661,18.197-26.661 s31.783-15.712,58.305,9.673C601.234,209.928,568.247,257.874,568.247,257.874z"/><path style="fill:#da896f" d="M569.036,247.201c0,0,17.408-15.988,18.293-1.397 C588.214,260.396,554.108,275.674,569.036,247.201z"/><path style="fill:#da896f" d="M564.424,207.47c0,0,1.088,24.247-0.935,35.09c-2.022,10.843-10.229,33.357-42.457,38.566 c-11.618-2.167-25.178-11.108-25.178-11.108s6.353,13.207,22.762,15.466c16.409,2.259,37.939-5.747,49.44-24.44 c8.744-16.803,16.216-48.269,16.216-48.269L564.424,207.47z"/><path style="fill:#7e474a" d="M543.283,191.906c0,0-23.651,17.228-33.751,6.929c-10.101-10.299-29.003-37.869-9.054-54.585 c19.949-16.717,75.654,6.898,90.499,43.328c-3.407,5.376-8.271,5.671-8.271,5.671s9.373,7.759,9.018,16.108 c-1.3,6.971-13.255,32.392-13.255,32.392s-7.837,3.347-14.651,14.098l-4.214-3.19l14.416-32.175L543.283,191.906z"/><path style="fill:#965c52" d="M520.32,143.142c0,0-20.426-2.207-22.396,12.653c1.902,15.583,71.898,27.035,72.62,23.162 c0.722-3.873-30.27-22.477-27.028-22.673c3.242-0.197,28.761,13.379,36.322,24.407 C578.526,174.836,563.063,150.312,520.32,143.142z"/><path style="fill:#965c52" d="M577.448,198.879c0,0,10.308-0.482,8.939,10.083c-1.842,9.875-6.597,9.589-9.757,7.197 c-3.16-2.393-22.161-19.762-14.137-17.664C570.516,200.592,577.448,198.879,577.448,198.879z"/></g><path style="fill:#7e474a" d="M527.209,220.533c0,0,15.576,1.734,22.111,5.808c0.076-3.442-9.725-9.553-13.258-10.26 C532.529,215.374,527.209,220.533,527.209,220.533z"/><path style="fill:#7e474a" d="M512.851,216.489c0,0-11.612-0.521-16.868,1.713c0.34-2.531,8.223-5.881,10.893-5.993 C509.547,212.097,512.851,216.489,512.851,216.489z"/><ellipse style="fill:#7e474a" cx="532.704" cy="231.151" rx="3.931" ry="2.402" transform="matrix(0.1834 -0.983 0.983 0.1834 207.7992 712.4424)"/><path style="fill:#7e474a" d="M507.157,226.386c-0.398,2.134-1.778,3.667-3.082,3.424c-1.304-0.243-2.039-2.17-1.641-4.305 c0.398-2.134,1.778-3.667,3.082-3.424C506.821,222.325,507.555,224.252,507.157,226.386z"/><path style="fill:#da896f" d="M510.624,239.23l-18.699-7.916c0,0,0.224,17.265,13.774,15.855 C510.156,247.016,510.624,239.23,510.624,239.23z"/></g></g><path style="fill:#283543" d="M470.736,443.667c0,0,28.118,207.414,28.118,233.217c-0.992,0,4.962,0.992,4.962,0.992 s-3.97,5.954-14.886,9.924c-7.939,3.97,23.818,0.992,27.787-1.985c-0.992-2.977-6.947-9.924-6.947-9.924 c1.985-1.985-1.398-188.474-1.398-188.474s44.072,136.868,51.019,195.42c-0.992,0-0.992,0-0.992,0l6.947,3.97l-12.901,9.924 c0,0,21.337,0,22.329-4.962c-0.992-4.962-1.985-8.932-1.985-8.932s-29.607-218.33-31.922-237.186 C528.626,435.728,470.736,443.667,470.736,443.667z"/><path style="fill:#f2f3cd" d="M533.589,291.828c0,0,28.284,15.879,31.261,18.36c2.977,2.481,7.774,7.112,7.774,7.112 l-16.54,19.848c0,0-29.111,66.822-15.217,108.504c0,0-32.419,14.555-70.13-1.985c-1.519-9.971-9.262-13.894,0-119.751 c1.323-8.601-2.646-23.818-2.646-23.818l49.621-5.954L533.589,291.828z"/><path style="fill:#da896f" d="M515.725,281.408c0,0,1.985,9.924-3.473,17.367c0.992,0.496,7.443,4.466,7.443,4.466l14.39-6.947 l-2.481-14.886H515.725z"/><path style="fill:#a38037" d="M507.786,296.79c0,0-4.631,9.924-4.631,14.555c1.323,0,13.232-5.293,13.232-5.293l11.247,12.57 c0,0,9.924-9.924,9.263-20.51c1.985,5.293-2.646,21.833-7.939,25.141c-5.293-1.323-12.571-13.232-12.571-13.232l-18.525,7.278 C497.862,317.3,500.508,304.73,507.786,296.79z"/><polygon style="fill:#a38037" points="509.771 311.18 511.259 321.601 521.183 316.639 516.387 306.053"/><path style="fill:#a38037" d="M516.446,316.651c0,0-16.746,72.91-17.934,107.044l-12.499,12.414l-8.689-17.845 c0,0,24.346-80.878,34.301-104.564C514.497,316.276,516.446,316.651,516.446,316.651z"/><path style="fill:#7e612e" d="M499.183,413.679c1.958-21.182,7.434-50.355,11.7-71.173l-8.472-3.496 c-7.518,22.21-16.352,50.663-21.277,66.733C487.092,408.325,493.615,411.178,499.183,413.679z"/><path style="fill:#242c34" d="M469.082,439.036c0,0,37.712,13.232,70.792,0.992c1.158,5.872,1.654,10.916,1.654,10.916 s-37.381,10.917-70.13-1.985C470.736,448.96,469.082,439.036,469.082,439.036z"/><path style="fill:#283543" d="M478.51,453.095l-2.481-12.405l6.451,1.985l1.489,13.894 C483.968,456.569,479.502,453.591,478.51,453.095z"/><path style="fill:#283543" d="M525.401,454.584l2.977-11.413l-6.947,0.992l-1.489,13.894 C519.943,458.057,524.409,455.08,525.401,454.584z"/><path style="fill:#f2f3cd" d="M477.523,298.775c0,0-32.75-4.962-44.659-52.598c0,0,37.712-33.742,52.598-35.727 c1.985-4.962,0-16.871-9.924-15.879c0,0-46.643,13.894-75.423,49.621c0,0,23.818,68.476,75.423,88.325 c8.932-6.947,5.624-33.742,5.624-33.742"/><path style="fill:#f2f3cd" d="M572.298,316.639c0,0,37.215,38.704,45.155,68.476c0,0-30.765,34.734-64.507,41.681 c0,0-6.947-7.939-1.985-15.879c2.977-3.97,25.803-14.886,32.75-28.78c1.985-5.954-23.818-41.681-36.719-45.651 C534.09,332.517,572.298,316.639,572.298,316.639z"/><path style="fill:#c48056" d="M502.002,257.425c0,0,15.879,0.662,23.487,4.631c0,0,0.165,1.489,0.786,1.985 c0.248-0.496,0.62-3.349,1.365-4.59c-0.496,0-1.489,1.985-1.489,1.985s-10.296-5.334-23.446-4.962 c-0.372-0.248-0.372-0.248-0.372-0.248s-0.744-1.365-0.992-1.241c0,1.489-0.496,3.97-0.62,4.466 C501.092,258.831,502.002,257.425,502.002,257.425z"/></g><rect style="fill:#5a4029" width="17.862" height="501.638" x="235.969" y="175.321"/><g><rect style="fill:#4a3622" width="17.862" height="21.312" x="235.969" y="254.714"/><g><polygon style="fill:#965429" points="342.789 234.599 323.793 211.046 167.496 211.046 167.496 267.61 323.793 267.61 346.525 239.231 346.525 234.599"/><polygon style="fill:#eab64b" points="323.793 262.979 167.496 262.979 167.496 206.415 323.793 206.415 346.525 234.6"/></g></g><g><rect style="fill:#4a3622" width="17.862" height="21.312" x="235.969" y="454.188"/><g><polygon style="fill:#965429" points="342.789 434.074 323.793 410.52 167.496 410.52 167.496 467.085 323.793 467.085 346.525 438.705 346.525 434.074"/><polygon style="fill:#eab64b" points="323.793 462.454 167.496 462.454 167.496 405.889 323.793 405.889 346.525 434.074"/></g></g><g><rect style="fill:#4a3622" width="17.862" height="21.312" x="235.875" y="351.97" transform="matrix(-1 -1.224647e-16 1.224647e-16 -1 489.6127 725.2514)"/><g><polygon style="fill:#965429" points="146.917 331.856 165.914 308.302 322.21 308.302 322.21 364.867 165.914 364.867 143.182 336.487 143.182 331.856"/><polygon style="fill:#eab64b" points="165.914 360.235 322.21 360.235 322.21 303.671 165.914 303.671 143.182 331.856"/></g></g><g><path style="fill:#272525" d="M611.9,293.62c1.105,0,2.055,0.397,2.85,1.192c0.795,0.795,1.192,1.745,1.192,2.849 c0,1.125-0.397,2.084-1.192,2.878c-0.795,0.795-1.744,1.192-2.85,1.192c-1.124,0-2.084-0.397-2.878-1.192 c-0.795-0.794-1.192-1.754-1.192-2.878c0-1.104,0.397-2.054,1.192-2.849C609.816,294.018,610.776,293.62,611.9,293.62z M620.041,263.673c2.869,0,5.277,0.892,7.226,2.675c1.948,1.784,2.922,3.993,2.922,6.629c0,1.803-0.412,3.407-1.235,4.812 c-0.824,1.405-2.273,2.941-4.347,4.608c-3.334,2.714-5.176,4.468-5.524,5.262l-1.134,2.559c-0.582,1.26-1.522,1.89-2.82,1.89 c-0.911,0-1.667-0.305-2.268-0.916c-0.602-0.611-0.901-1.362-0.901-2.253c0-2.675,2.248-6.038,6.745-10.089 c1.841-1.667,2.989-2.796,3.445-3.387c0.455-0.591,0.684-1.265,0.684-2.021c0-0.873-0.34-1.618-1.018-2.239 c-0.679-0.62-1.493-0.931-2.442-0.931c-1.066,0-2.002,0.364-2.806,1.09c-0.805,0.727-1.207,1.575-1.207,2.544 c0,0.368,0.175,1.134,0.523,2.297c0.213,0.679,0.319,1.26,0.319,1.744c0,0.853-0.295,1.575-0.887,2.166 c-0.591,0.592-1.304,0.887-2.137,0.887c-1.396,0-2.549-0.615-3.46-1.846c-0.911-1.23-1.366-2.776-1.366-4.637 c0-3.14,1.1-5.732,3.3-7.777S616.649,263.673,620.041,263.673z"/></g><g><path style="fill:#272525" d="M446.398,158.486c1.742-0.875,3.479-1.069,5.205-0.581c1.729,0.49,2.996,1.535,3.8,3.135 c0.55,1.096,0.79,2.196,0.718,3.301c-0.071,1.105-0.482,2.481-1.233,4.126c-1.197,2.667-1.78,4.295-1.749,4.884l0.092,1.9 c0.031,0.944-0.348,1.613-1.137,2.009c-0.554,0.278-1.105,0.323-1.657,0.135c-0.552-0.188-0.964-0.552-1.235-1.093 c-0.816-1.626-0.478-4.354,1.018-8.189c0.61-1.574,0.963-2.611,1.06-3.11c0.096-0.498,0.028-0.977-0.202-1.436 c-0.266-0.529-0.7-0.88-1.303-1.05c-0.602-0.17-1.189-0.11-1.768,0.18c-0.646,0.326-1.104,0.832-1.371,1.519 c-0.267,0.688-0.252,1.326,0.043,1.915c0.113,0.224,0.453,0.635,1.02,1.235c0.338,0.348,0.579,0.668,0.727,0.963 c0.262,0.519,0.303,1.046,0.123,1.586c-0.178,0.54-0.521,0.938-1.027,1.191c-0.848,0.426-1.736,0.404-2.665-0.065 c-0.93-0.469-1.679-1.271-2.247-2.4c-0.958-1.907-1.081-3.818-0.369-5.731C442.951,160.997,444.337,159.522,446.398,158.486z M450.594,179.167c0.672-0.337,1.37-0.386,2.096-0.146c0.726,0.24,1.257,0.695,1.594,1.367c0.344,0.683,0.395,1.387,0.155,2.113 c-0.24,0.725-0.696,1.257-1.368,1.595c-0.682,0.343-1.387,0.394-2.111,0.154c-0.727-0.24-1.26-0.702-1.604-1.385 c-0.338-0.672-0.387-1.369-0.146-2.095C449.449,180.044,449.912,179.51,450.594,179.167z"/></g><path style="fill:#f2f3cd" d="M575.014,203.77c0,0-4.141,28.169-11.355,18.164C556.444,211.93,575.014,203.77,575.014,203.77z"/><path style="fill:#f2f3cd" d="M602.792,143.643c-8.041-10.146-20.042-16.72-31.785-21.623 c-14.222-5.937-29.056-10.515-44.015-14.182c-0.156-0.038-0.313-0.075-0.469-0.113c3.38-5.33,9.297-8.64,15.277-10.271 c7.607-2.074,15.994-1.586,23.724-0.535c7.734,1.052,15.302,3.261,22.461,6.35c0.585,0.253,1.095-0.609,0.505-0.864 c-13.136-5.669-28.199-8.708-42.495-6.794c-8.036,1.075-16.211,5.159-20.431,11.882c-6.841-1.651-13.754-3.105-20.794-3.5 c-3.413-0.191-6.825,0.009-10.2,0.527c-2.948,0.453-6.438,1.192-8.851,3.079c-6.124,4.788-2.794,12.506,1.106,17.584 c4.684,6.099,11.046,11.255,17.225,15.761c13.228,9.645,28.792,16.033,44.934,18.659c0.631,0.103,0.901-0.861,0.266-0.964 c-13.482-2.193-26.35-7.013-38.017-14.106c-5.911-3.594-11.415-7.83-16.493-12.522c-4.923-4.55-10.995-10.174-11.484-17.295 c-0.635-9.23,13.414-9.83,19.672-9.783c7.463,0.057,14.864,1.718,22.104,3.46c-1.431,2.575-2.299,5.506-2.386,8.783 c-0.33,12.457,11.734,21.751,21.39,27.284c11.993,6.872,25.641,10.691,39.409,11.509c5.749,0.342,12.49,0.733,17.88-1.652 c1.769-0.783,3.141-2.133,3.779-3.958C605.961,147.907,604.223,145.448,602.792,143.643z M597.205,154.567 c-3.601,0.731-7.537,0.582-11.191,0.507c-7.391-0.151-14.734-1.347-21.851-3.314c-13.381-3.699-28.156-10.728-36.353-22.379 c-4.114-5.848-5.5-13.105-2.374-19.707c0.17-0.359,0.355-0.707,0.546-1.05c0.248,0.06,0.497,0.119,0.744,0.179 c15.172,3.672,30.258,8.359,44.643,14.448c6.201,2.625,12.212,5.705,17.803,9.467c2.835,1.908,5.497,4.055,8,6.378 c2.71,2.515,6.836,6.088,7.115,9.964C604.541,152.586,599.846,154.03,597.205,154.567z"/><polygon style="fill:#f2f3cd" points="593.185 99.185 596.518 91.037 597.63 100.667 605.037 102.148 598 104 601.333 111.778 594.667 105.481 587.259 111.407 592.074 102.519 585.037 99.185"/><polygon style="fill:#f2f3cd" points="485.185 122.185 488.518 114.037 489.63 123.667 497.037 125.148 490 127 493.333 134.778 486.667 128.482 479.259 134.407 484.074 125.519 477.037 122.185"/><polygon style="fill:#f2f3cd" points="604.926 176.111 606.593 172.037 607.148 176.852 610.852 177.593 607.333 178.518 609 182.407 605.667 179.259 601.963 182.222 604.37 177.778 600.852 176.111"/></g></svg>